<svg width="29" height="29" viewBox="0 0 29 29" fill="none" xmlns="http://www.w3.org/2000/svg">
<path d="M26.3936 19.1127C26.3936 23.4005 23.8374 25.9567 19.5496 25.9567H18.1478C17.4999 25.9567 16.9698 25.4266 16.9698 24.7787V17.9819C16.9698 17.6638 17.229 17.3929 17.547 17.3929L19.6202 17.3575C19.7852 17.3458 19.9265 17.228 19.9619 17.0631L20.3742 14.8131C20.4095 14.6011 20.2446 14.4008 20.0208 14.4008L17.5117 14.4362C17.1818 14.4362 16.9227 14.177 16.9109 13.859L16.8638 10.973C16.8638 10.7845 17.0169 10.6196 17.2172 10.6196L20.0443 10.5724C20.2446 10.5724 20.3977 10.4193 20.3977 10.2191L20.3506 7.39193C20.3506 7.19167 20.1975 7.03855 19.9972 7.03855L16.8167 7.08568C14.8613 7.12102 13.3064 8.72304 13.3417 10.6785L13.4006 13.9179C13.4124 14.2477 13.1532 14.5069 12.8234 14.5186L11.4098 14.5422C11.2096 14.5422 11.0564 14.6953 11.0564 14.8956L11.0918 17.1337C11.0918 17.334 11.2449 17.4871 11.4452 17.4871L12.8587 17.4636C13.1886 17.4636 13.4477 17.7227 13.4595 18.0408L13.5655 24.7552C13.5773 25.4148 13.0472 25.9567 12.3875 25.9567H9.67821C5.39041 25.9567 2.83423 23.4005 2.83423 19.1009V9.24134C2.83423 4.95355 5.39041 2.39736 9.67821 2.39736H19.5496C23.8374 2.39736 26.3936 4.95355 26.3936 9.24134V19.1127Z" fill="#0057FF"/>
</svg>
