<svg width="29" height="29" viewBox="0 0 29 29" fill="none" xmlns="http://www.w3.org/2000/svg">
<path d="M26.3152 13.0815C26.2563 12.4808 25.7498 12.0331 25.149 12.0331H16.2554C15.6075 12.0331 15.0774 12.5632 15.0774 13.2111V15.2254C15.0774 15.8733 15.6075 16.4034 16.2554 16.4034H21.568C21.4384 17.4871 20.7316 19.1245 19.1649 20.22C18.1637 20.915 16.8326 21.398 15.0774 21.398C14.9949 21.398 14.9243 21.3979 14.8418 21.3862C11.838 21.2919 9.29358 19.2776 8.37477 16.5094C8.1274 15.7673 7.98604 14.9898 7.98604 14.177C7.98604 13.3642 8.12739 12.575 8.36299 11.8446C8.43367 11.6326 8.51612 11.4206 8.61036 11.2086C9.69409 8.77017 12.0618 7.05033 14.8418 6.96788C14.9125 6.9561 14.9949 6.95608 15.0774 6.95608C16.7619 6.95608 18.0223 7.50972 18.9058 8.12226C19.3652 8.44031 19.9777 8.36964 20.3782 7.98091L22.0156 6.37889C22.5339 5.87237 22.4868 5.01243 21.8978 4.58836C20.0248 3.21014 17.7396 2.39736 15.0774 2.39736C14.9949 2.39736 14.9243 2.39737 14.8418 2.40915C10.3302 2.49161 6.45468 5.1067 4.55815 8.88797C3.75714 10.49 3.29773 12.2805 3.29773 14.177C3.29773 16.0735 3.75714 17.864 4.55815 19.4661H4.56994C6.46646 23.2474 10.342 25.8624 14.8418 25.9449C14.9243 25.9567 14.9949 25.9567 15.0774 25.9567C18.2579 25.9567 20.9319 24.9083 22.8755 23.106C25.1019 21.0445 26.3859 18.029 26.3859 14.4362C26.3859 13.9297 26.3623 13.4938 26.3152 13.0815Z" fill="#FF7A00"/>
</svg>
